<svg width="40" height="40" viewBox="0 0 40 40" fill="none" xmlns="http://www.w3.org/2000/svg">
<rect width="40" height="40" rx="12" fill="#299AB3"/>
<path fill-rule="evenodd" clip-rule="evenodd" d="M12.3372 19.852C16.4185 18.0738 19.14 16.9015 20.5017 16.3352C24.3896 14.718 25.1975 14.4371 25.7241 14.4278C25.8399 14.4258 26.0988 14.4545 26.2666 14.5906C26.4082 14.7055 26.4472 14.8608 26.4658 14.9697C26.4845 15.0787 26.5077 15.3269 26.4892 15.5209C26.2785 17.7346 25.3669 23.1067 24.9031 25.5862C24.7069 26.6353 24.3204 26.9871 23.9463 27.0215C23.1333 27.0963 22.516 26.4842 21.7285 25.968C20.4963 25.1603 19.8002 24.6575 18.6042 23.8693C17.222 22.9585 18.118 22.4578 18.9057 21.6397C19.1119 21.4255 22.694 18.1673 22.7633 17.8717C22.772 17.8348 22.7801 17.697 22.6982 17.6242C22.6163 17.5515 22.4955 17.5763 22.4083 17.5961C22.2848 17.6242 20.3163 18.9252 16.5031 21.4993C15.9443 21.883 15.4382 22.0699 14.9848 22.0601C14.4849 22.0493 13.5234 21.7775 12.8086 21.5451C11.9318 21.2601 11.235 21.1094 11.2957 20.6254C11.3273 20.3733 11.6745 20.1155 12.3372 19.852Z" fill="white"/>
</svg>
